<svg version="1" xmlns="http://www.w3.org/2000/svg" width="933.333" height="933.333" viewBox="0 0 700.000000 700.000000"><path d="M504.2 145.9c-17.6 17.7-32.3 32.1-32.6 32.1-.3 0-4.9-2.8-10.3-6.2-10-6.3-31-16.8-33.5-16.8-.8 0-1.8-.4-2.3-.9-2-1.9-24.4-8.2-37-10.5-18.6-3.4-40.3-4.6-55.5-3.1-10.8 1.1-16.8 1.9-21.6 3-1.2.3-3.9.7-6 1.1-5.5.8-24.8 6.8-34.1 10.5-40.1 15.9-76.8 46.8-99.9 84.2-5.2 8.4-13.4 24.3-16 31.3-4.4 11.5-5.6 14.9-7.8 22.9-1.4 4.9-2.8 10.6-3.1 12.5-.3 1.9-.8 4.2-1 5-.8 2.7-2.3 13.5-3 21.5-.7 7-.7 28.9 0 35.5 1.6 15.4 6.5 40 9.4 46.5.5 1.1 1.9 4.9 3.1 8.5 2.1 6.2 11.9 27.1 15.7 33.5 38.1 64.2 106.6 103.4 180.8 103.6 71.8.1 138.8-36.5 177.7-97.1 12.6-19.6 24.9-49.5 28.2-68.5.3-1.7 1-5.5 1.6-8.5.6-3 1.3-7.8 1.6-10.5.3-2.8.7-6.6 1-8.5.5-4.5.5-29.3-.1-34.5-1.1-10.7-1.6-14.7-2-15.8-.2-.7-.6-2.8-.9-4.7-1.9-13.1-9.3-36.2-16.5-51.5-4.4-9.3-14.5-27.1-16.2-28.5-3-2.6-1.5-4.5 29.6-35.7 17.3-17.4 31.5-32.1 31.5-32.7 0-.6-11-12-24.4-25.4l-24.3-24.3-32.1 32zm-24.5 39.2c9.8 7.7 29.1 27.2 36 36.4l5.2 6.9-24.8 24.8C482.4 266.8 471 278 470.8 278c-.3 0-2.2-2.6-4.3-5.7-4.4-6.7-4.1-6.3-10.1-13.3-8.8-10.3-18.1-18.5-28.6-25.5-3.4-2.2-5.5-4.2-5.1-4.9.5-.9 48.5-49.4 49-49.6.1 0 3.7 2.7 8 6.1zm-111.1 26.2c1 .3 3.7.9 6 1.2 13.4 1.9 36.8 10.7 45.3 17.1.2.2-18.2 18.9-40.9 41.5l-41.2 41.3 25 24.8 25 24.9 41-41c22.6-22.6 41.3-41.1 41.6-41.1 1 0 8.2 15.1 11 23 5.9 16.3 8.1 30 8 49-.1 12.5-.7 18.1-3 28-5.7 25.4-18 48.2-35.8 66.5-23.9 24.4-50.2 37.6-84.5 42.3-9.3 1.3-30.7.6-40.6-1.2-21.5-4.1-41.6-12.8-59.1-25.7-9.3-6.7-25.4-23.6-31.7-33-12.9-19.4-21.3-41.8-23.4-62.4-1-8.8-.9-27.2 0-34.5 1.3-9.9 6.8-30.5 9.5-35.6.6-1.1 2.7-5.3 4.7-9.4 6.3-12.9 14.5-24 26-35.5 21-21 46.7-34.4 75-39.2 1.7-.3 4.8-.8 7-1.2 4.6-.8 32.2-.6 35.1.2z"/></svg>